<?xml version="1.0" encoding="UTF-8"?>
<svg width="11px" height="19px" viewBox="0 0 11 19" version="1.1" xmlns="http://www.w3.org/2000/svg" xmlns:xlink="http://www.w3.org/1999/xlink">
    <!-- Generator: Sketch 49.3 (51167) - http://www.bohemiancoding.com/sketch -->
    <title>Icons/Chevron/Right/Dark Copy</title>
    <desc>Created with Sketch.</desc>
    <defs></defs>
    <g id="Page-1" stroke="none" stroke-width="1" fill="none" fill-rule="evenodd">
        <g id="Component---prev/next-UI" transform="translate(-67.000000, -186.000000)" fill="#999999">
            <g id="Group-4" transform="translate(51.000000, 172.000000)">
                <g id="Icons/Chevron/Right/Grey" transform="translate(22.000000, 23.000000) rotate(-180.000000) translate(-22.000000, -23.000000) translate(12.000000, 13.000000)">
                    <path d="M3.23201198,12.9575022 L11.859463,12.9575022 C12.725792,12.9575022 13.4280904,13.6598006 13.4280904,14.5261296 C13.4280904,15.3924587 12.725792,16.0947571 11.859463,16.0947571 L1.66338453,16.0947571 C1.23022002,16.0947571 0.838063161,15.9191825 0.554197426,15.6353167 C0.27033169,15.351451 0.0947570825,14.9592941 0.0947570825,14.5261296 L0.0947570825,4.3300512 C0.0947570825,3.46372218 0.797055514,2.76142375 1.66338453,2.76142375 C2.52971355,2.76142375 3.23201198,3.46372218 3.23201198,4.3300512 L3.23201198,12.9575022 Z" id="Combined-Shape" transform="translate(6.761424, 9.428090) scale(-1, 1) rotate(-315.000000) translate(-6.761424, -9.428090) "></path>
                </g>
            </g>
        </g>
    </g>
</svg>