<?xml version="1.0" encoding="UTF-8"?>
<svg width="30px" height="30px" viewBox="0 0 30 30" version="1.1" xmlns="http://www.w3.org/2000/svg" xmlns:xlink="http://www.w3.org/1999/xlink">
    <!-- Generator: Sketch 48.2 (47327) - http://www.bohemiancoding.com/sketch -->
    <title>Icon/Information-blue Copy</title>
    <desc>Created with Sketch.</desc>
    <defs>
        <path d="M13.202,17.736 C13.1139996,17.6479996 13.07,17.5453339 13.07,17.428 C13.07,17.2226656 13.0773333,17.0686672 13.092,16.966 C13.1946672,16.3646637 13.4256649,15.8220024 13.785,15.338 C14.1443351,14.8539976 14.6319969,14.3113363 15.248,13.71 C15.7026689,13.2699978 16.0473322,12.8996682 16.282,12.599 C16.5166678,12.2983318 16.6413333,12.0013348 16.656,11.708 C16.7000002,11.2826645 16.5643349,10.9380013 16.249,10.674 C15.9336651,10.4099987 15.5413357,10.278 15.072,10.278 C13.9866612,10.278 13.3193346,10.7986615 13.07,11.84 C12.9966663,12.0160009 12.9086672,12.1479996 12.806,12.236 C12.7033328,12.3240004 12.5566676,12.368 12.366,12.368 L9.506,12.368 C9.3593326,12.368 9.23833381,12.3130005 9.143,12.203 C9.04766619,12.0929994 9,11.9500009 9,11.774 C9.02933348,10.981996 9.28599758,10.219337 9.77,9.486 C10.2540024,8.752663 10.9726619,8.15500231 11.926,7.693 C12.8793381,7.23099769 14.0159934,7 15.336,7 C16.6853401,7 17.7816624,7.20899791 18.625,7.627 C19.4683375,8.04500209 20.0733315,8.55466366 20.44,9.156 C20.8066685,9.75733634 20.99,10.3659969 20.99,10.982 C20.99,11.7300037 20.821335,12.3826639 20.484,12.94 C20.146665,13.4973361 19.6626698,14.1206632 19.032,14.81 C18.635998,15.2500022 18.3353344,15.6019987 18.13,15.866 C17.9246656,16.1300013 17.7560007,16.4159985 17.624,16.724 C17.565333,16.8560007 17.5140002,17.0393322 17.47,17.274 C17.3526661,17.4940011 17.2463338,17.6479996 17.151,17.736 C17.0556662,17.8240004 16.9273341,17.868 16.766,17.868 L13.51,17.868 C13.3926661,17.868 13.2900004,17.8240004 13.202,17.736 Z M13.169,23.466 C13.0589995,23.3633328 13.004,23.2313341 13.004,23.07 L13.004,20.452 C13.004,20.2906659 13.0589995,20.1550006 13.169,20.045 C13.2790005,19.9349995 13.4146659,19.88 13.576,19.88 L16.524,19.88 C16.6853341,19.88 16.8209995,19.9349995 16.931,20.045 C17.0410005,20.1550006 17.096,20.2906659 17.096,20.452 L17.096,23.07 C17.096,23.2313341 17.0410005,23.3633328 16.931,23.466 C16.8209995,23.5686672 16.6853341,23.62 16.524,23.62 L13.576,23.62 C13.4146659,23.62 13.2790005,23.5686672 13.169,23.466 Z" id="path-1"></path>
        <filter x="-4.2%" y="-3.0%" width="116.7%" height="112.0%" filterUnits="objectBoundingBox" id="filter-2">
            <feOffset dx="1" dy="1" in="SourceAlpha" result="shadowOffsetOuter1"></feOffset>
            <feColorMatrix values="0 0 0 0 0   0 0 0 0 0   0 0 0 0 0  0 0 0 0.24 0" type="matrix" in="shadowOffsetOuter1"></feColorMatrix>
        </filter>
    </defs>
    <g id="Hint-overlay" stroke="none" stroke-width="1" fill="none" fill-rule="evenodd" transform="translate(-397.000000, -363.000000)">
        <g id="Group" transform="translate(376.000000, 348.000000)">
            <g id="Icon/Information-blue-Copy" transform="translate(21.000000, 15.000000)">
                <circle id="Oval" fill="#F68E3B" cx="15" cy="15" r="15"></circle>
                <g id="?">
                    <use fill="black" fill-opacity="1" filter="url(#filter-2)" xlink:href="#path-1"></use>
                    <use fill="#FFFFFF" fill-rule="evenodd" xlink:href="#path-1"></use>
                </g>
            </g>
        </g>
    </g>
</svg>